<?xml version="1.0" encoding="UTF-8"?>
<svg xmlns="http://www.w3.org/2000/svg" xmlns:xlink="http://www.w3.org/1999/xlink" width="375pt" height="374.999991pt" viewBox="0 0 375 374.999991" version="1.2">
<defs>
<clipPath id="clip1">
  <path d="M 44 315 L 85 315 L 85 356.160156 L 44 356.160156 Z M 44 315 "/>
</clipPath>
<clipPath id="clip2">
  <path d="M 291 315 L 332 315 L 332 356.160156 L 291 356.160156 Z M 291 315 "/>
</clipPath>
<clipPath id="clip3">
  <path d="M 72 344 L 303 344 L 303 356.160156 L 72 356.160156 Z M 72 344 "/>
</clipPath>
<clipPath id="clip4">
  <path d="M 205 11.160156 L 244 11.160156 L 244 45 L 205 45 Z M 205 11.160156 "/>
</clipPath>
<clipPath id="clip5">
  <path d="M 132 11.160156 L 171 11.160156 L 171 45 L 132 45 Z M 132 11.160156 "/>
</clipPath>
</defs>
<g id="surface1">
<path style=" stroke:none;fill-rule:nonzero;fill:rgb(25.878906%,32.939148%,32.939148%);fill-opacity:1;" d="M 365.949219 160.992188 L 9.800781 160.992188 C 6.625 160.992188 4.054688 158.425781 4.054688 155.25 L 4.054688 126.550781 C 4.054688 123.375 6.625 120.808594 9.800781 120.808594 L 365.949219 120.808594 C 369.125 120.808594 371.695312 123.375 371.695312 126.550781 L 371.695312 155.25 C 371.695312 158.425781 369.125 160.992188 365.949219 160.992188 Z M 15.542969 149.511719 L 360.207031 149.511719 L 360.207031 132.289062 L 15.542969 132.289062 Z M 15.542969 149.511719 "/>
<path style=" stroke:none;fill-rule:nonzero;fill:rgb(25.878906%,32.939148%,32.939148%);fill-opacity:1;" d="M 27.027344 178.214844 C 24.257812 178.214844 21.816406 176.203125 21.363281 173.378906 C 20.402344 167.414062 16.382812 160.992188 9.800781 160.992188 C 6.625 160.992188 4.054688 158.425781 4.054688 155.25 C 4.054688 152.078125 6.625 149.511719 9.800781 149.511719 C 23.105469 149.511719 30.996094 160.941406 32.703125 171.566406 C 33.207031 174.695312 31.078125 177.644531 27.941406 178.144531 C 27.628906 178.191406 27.332031 178.214844 27.027344 178.214844 Z M 27.027344 178.214844 "/>
<g clip-path="url(#clip1)" clip-rule="nonzero">
<path style=" stroke:none;fill-rule:nonzero;fill:rgb(25.878906%,32.939148%,32.939148%);fill-opacity:1;" d="M 78.730469 356.160156 C 60.550781 356.160156 47.695312 343.625 44.339844 322.621094 C 43.839844 319.492188 45.972656 316.546875 49.109375 316.046875 C 52.25 315.53125 55.191406 317.683594 55.6875 320.8125 C 56.835938 327.992188 61.371094 344.679688 78.730469 344.679688 C 81.910156 344.679688 84.476562 347.246094 84.476562 350.421875 C 84.476562 353.59375 81.910156 356.160156 78.730469 356.160156 Z M 78.730469 356.160156 "/>
</g>
<path style=" stroke:none;fill-rule:nonzero;fill:rgb(25.878906%,32.939148%,32.939148%);fill-opacity:1;" d="M 50.003906 327.457031 C 47.21875 327.457031 44.773438 325.425781 44.335938 322.589844 L 21.359375 173.34375 C 20.875 170.210938 23.023438 167.277344 26.160156 166.796875 C 29.355469 166.296875 32.230469 168.464844 32.714844 171.59375 L 55.691406 320.839844 C 56.175781 323.972656 54.027344 326.90625 50.890625 327.390625 C 50.589844 327.4375 50.292969 327.457031 50.003906 327.457031 Z M 50.003906 327.457031 "/>
<path style=" stroke:none;fill-rule:nonzero;fill:rgb(25.878906%,32.939148%,32.939148%);fill-opacity:1;" d="M 348.722656 178.214844 C 348.417969 178.214844 348.121094 178.191406 347.808594 178.136719 C 344.671875 177.640625 342.542969 174.6875 343.046875 171.558594 C 344.753906 160.933594 352.644531 149.503906 365.949219 149.503906 C 369.125 149.503906 371.695312 152.070312 371.695312 155.246094 C 371.695312 158.421875 369.125 160.984375 365.949219 160.984375 C 359.367188 160.984375 355.347656 167.410156 354.386719 173.375 C 353.933594 176.203125 351.492188 178.214844 348.722656 178.214844 Z M 348.722656 178.214844 "/>
<g clip-path="url(#clip2)" clip-rule="nonzero">
<path style=" stroke:none;fill-rule:nonzero;fill:rgb(25.878906%,32.939148%,32.939148%);fill-opacity:1;" d="M 297.019531 356.160156 C 293.839844 356.160156 291.273438 353.59375 291.273438 350.421875 C 291.273438 347.246094 293.839844 344.679688 297.019531 344.679688 C 314.378906 344.679688 318.921875 327.992188 320.070312 320.816406 C 320.570312 317.6875 323.535156 315.542969 326.648438 316.050781 C 329.785156 316.550781 331.914062 319.496094 331.414062 322.625 C 328.054688 343.625 315.199219 356.160156 297.019531 356.160156 Z M 297.019531 356.160156 "/>
</g>
<path style=" stroke:none;fill-rule:nonzero;fill:rgb(25.878906%,32.939148%,32.939148%);fill-opacity:1;" d="M 325.746094 327.457031 C 325.453125 327.457031 325.160156 327.4375 324.867188 327.390625 C 321.730469 326.90625 319.582031 323.972656 320.0625 320.839844 L 343.042969 171.59375 C 343.53125 168.460938 346.464844 166.332031 349.597656 166.796875 C 352.730469 167.277344 354.878906 170.210938 354.398438 173.34375 L 331.421875 322.589844 C 330.976562 325.425781 328.53125 327.457031 325.746094 327.457031 Z M 325.746094 327.457031 "/>
<g clip-path="url(#clip3)" clip-rule="nonzero">
<path style=" stroke:none;fill-rule:nonzero;fill:rgb(25.878906%,32.939148%,32.939148%);fill-opacity:1;" d="M 297.019531 356.160156 L 78.730469 356.160156 C 75.554688 356.160156 72.988281 353.59375 72.988281 350.421875 C 72.988281 347.246094 75.554688 344.679688 78.730469 344.679688 L 297.019531 344.679688 C 300.195312 344.679688 302.761719 347.246094 302.761719 350.421875 C 302.761719 353.59375 300.195312 356.160156 297.019531 356.160156 Z M 297.019531 356.160156 "/>
</g>
<path style=" stroke:none;fill-rule:nonzero;fill:rgb(25.878906%,32.939148%,32.939148%);fill-opacity:1;" d="M 124.679688 304.496094 C 121.808594 304.496094 119.320312 302.351562 118.984375 299.429688 L 107.496094 201.839844 C 107.125 198.6875 109.378906 195.835938 112.527344 195.46875 C 115.703125 195.0625 118.535156 197.347656 118.902344 200.496094 L 130.390625 298.085938 C 130.757812 301.234375 128.507812 304.089844 125.359375 304.457031 C 125.128906 304.484375 124.90625 304.496094 124.679688 304.496094 Z M 124.679688 304.496094 "/>
<path style=" stroke:none;fill-rule:nonzero;fill:rgb(25.878906%,32.939148%,32.939148%);fill-opacity:1;" d="M 187.875 304.496094 C 184.699219 304.496094 182.128906 301.929688 182.128906 298.757812 L 182.128906 201.167969 C 182.128906 197.996094 184.699219 195.429688 187.875 195.429688 C 191.050781 195.429688 193.621094 197.996094 193.621094 201.167969 L 193.621094 298.757812 C 193.621094 301.929688 191.050781 304.496094 187.875 304.496094 Z M 187.875 304.496094 "/>
<path style=" stroke:none;fill-rule:nonzero;fill:rgb(25.878906%,32.939148%,32.939148%);fill-opacity:1;" d="M 251.070312 304.496094 C 250.84375 304.496094 250.621094 304.484375 250.390625 304.457031 C 247.242188 304.089844 244.992188 301.230469 245.359375 298.085938 L 256.847656 200.496094 C 257.214844 197.347656 260.054688 195.074219 263.222656 195.46875 C 266.371094 195.835938 268.625 198.695312 268.253906 201.839844 L 256.765625 299.429688 C 256.429688 302.351562 253.941406 304.496094 251.070312 304.496094 Z M 251.070312 304.496094 "/>
<path style=" stroke:none;fill-rule:nonzero;fill:rgb(25.878906%,32.939148%,32.939148%);fill-opacity:1;" d="M 263.363281 132.285156 C 261.375 132.285156 259.445312 131.257812 258.382812 129.414062 L 207.808594 41.878906 C 206.222656 39.128906 207.164062 35.621094 209.910156 34.035156 C 212.644531 32.445312 216.164062 33.386719 217.757812 36.136719 L 268.332031 123.671875 C 269.914062 126.421875 268.972656 129.929688 266.226562 131.515625 C 265.320312 132.035156 264.339844 132.285156 263.363281 132.285156 Z M 263.363281 132.285156 "/>
<path style=" stroke:none;fill-rule:nonzero;fill:rgb(25.878906%,32.939148%,32.939148%);fill-opacity:1;" d="M 296.507812 132.261719 C 294.519531 132.261719 292.589844 131.226562 291.527344 129.390625 L 232.679688 27.527344 C 231.09375 24.777344 232.039062 21.269531 234.785156 19.683594 C 237.523438 18.101562 241.039062 19.042969 242.628906 21.785156 L 301.476562 123.648438 C 303.0625 126.398438 302.117188 129.90625 299.371094 131.492188 C 298.472656 132.015625 297.484375 132.261719 296.507812 132.261719 Z M 296.507812 132.261719 "/>
<g clip-path="url(#clip4)" clip-rule="nonzero">
<path style=" stroke:none;fill-rule:nonzero;fill:rgb(25.878906%,32.939148%,32.939148%);fill-opacity:1;" d="M 212.78125 44.746094 C 210.796875 44.746094 208.859375 43.714844 207.800781 41.871094 C 202.265625 32.273438 205.566406 19.964844 215.167969 14.433594 C 219.820312 11.746094 225.242188 11.027344 230.417969 12.421875 C 235.605469 13.8125 239.941406 17.136719 242.625 21.792969 C 244.210938 24.542969 243.261719 28.050781 240.515625 29.628906 C 237.765625 31.210938 234.25 30.265625 232.675781 27.519531 C 231.527344 25.527344 229.671875 24.105469 227.449219 23.515625 C 225.214844 22.917969 222.902344 23.222656 220.910156 24.375 C 216.792969 26.746094 215.378906 32.019531 217.75 36.144531 C 219.335938 38.894531 218.390625 42.398438 215.644531 43.980469 C 214.742188 44.5 213.753906 44.746094 212.78125 44.746094 Z M 212.78125 44.746094 "/>
</g>
<path style=" stroke:none;fill-rule:nonzero;fill:rgb(25.878906%,32.939148%,32.939148%);fill-opacity:1;" d="M 112.386719 132.289062 C 111.410156 132.289062 110.421875 132.042969 109.523438 131.519531 C 106.769531 129.9375 105.828125 126.421875 107.417969 123.679688 L 157.992188 36.136719 C 159.578125 33.386719 163.09375 32.441406 165.839844 34.035156 C 168.589844 35.621094 169.535156 39.132812 167.941406 41.878906 L 117.367188 129.417969 C 116.304688 131.257812 114.375 132.289062 112.386719 132.289062 Z M 112.386719 132.289062 "/>
<path style=" stroke:none;fill-rule:nonzero;fill:rgb(25.878906%,32.939148%,32.939148%);fill-opacity:1;" d="M 79.230469 132.285156 C 78.253906 132.285156 77.265625 132.035156 76.367188 131.515625 C 73.613281 129.929688 72.671875 126.417969 74.261719 123.671875 L 133.121094 21.785156 C 134.707031 19.035156 138.226562 18.09375 140.964844 19.683594 C 143.71875 21.269531 144.660156 24.78125 143.070312 27.527344 L 84.210938 129.414062 C 83.148438 131.25 81.21875 132.285156 79.230469 132.285156 Z M 79.230469 132.285156 "/>
<g clip-path="url(#clip5)" clip-rule="nonzero">
<path style=" stroke:none;fill-rule:nonzero;fill:rgb(25.878906%,32.939148%,32.939148%);fill-opacity:1;" d="M 162.96875 44.746094 C 161.996094 44.746094 161.007812 44.5 160.105469 43.980469 C 157.355469 42.398438 156.40625 38.886719 158 36.144531 C 160.371094 32.019531 158.957031 26.746094 154.839844 24.375 C 152.839844 23.222656 150.519531 22.921875 148.300781 23.515625 C 146.078125 24.109375 144.222656 25.535156 143.074219 27.519531 C 141.496094 30.269531 137.984375 31.21875 135.234375 29.628906 C 132.480469 28.050781 131.535156 24.535156 133.125 21.792969 C 135.808594 17.136719 140.144531 13.8125 145.332031 12.421875 C 150.515625 11.035156 155.941406 11.746094 160.582031 14.433594 C 170.183594 19.964844 173.484375 32.273438 167.949219 41.871094 C 166.890625 43.714844 164.953125 44.746094 162.96875 44.746094 Z M 162.96875 44.746094 "/>
</g>
</g>
</svg>
